<?xml version="1.0" encoding="utf-8"?>
<!-- Generator: Adobe Illustrator 23.0.3, SVG Export Plug-In . SVG Version: 6.00 Build 0)  -->
<svg version="1.1" xmlns="http://www.w3.org/2000/svg" xmlns:xlink="http://www.w3.org/1999/xlink" x="0px" y="0px"
	 viewBox="0 0 609.1 750" style="enable-background:new 0 0 609.1 750;" xml:space="preserve">
<style type="text/css">
	.st0{clip-path:url(#SVGID_2_);fill:#F4E6A8;}
	.st1{clip-path:url(#SVGID_2_);fill:#EDE198;}
	.st2{clip-path:url(#SVGID_2_);fill:#A8805D;}
	.st3{clip-path:url(#SVGID_4_);fill:#F2F2F2;}
	.st4{clip-path:url(#SVGID_4_);fill:#F9F9F9;}
	.st5{fill:#AAB5BC;stroke:#6E777C;stroke-miterlimit:10;}
	.st6{fill:#514C4A;stroke:#232628;stroke-miterlimit:10;}
	.st7{display:none;}
	.st8{display:inline;}
	.st9{clip-path:url(#SVGID_6_);fill:#F2F2F2;}
	.st10{clip-path:url(#SVGID_6_);fill:#F9F9F9;}
	.st11{clip-path:url(#SVGID_8_);fill:#F4E6A8;}
	.st12{clip-path:url(#SVGID_8_);fill:#EDE198;}
	.st13{clip-path:url(#SVGID_8_);fill:#A8805D;}
	.st14{display:inline;fill:#FFEC66;stroke:#EDB732;stroke-miterlimit:10;}
</style>
<g id="Capa_7">
	<g id="Cucharon_1_">
		<defs>
			<path id="SVGID_1_" d="M44.3,93.7c0,0-50.9-8.8-43,125c5,85,23,96,30,108l39,200c0,0,38.5,205.1,61,222c4,3,26-2,27-12
				c1.9-19-17-65-17-65l-44-161c0,0-32.6-155.7-35.5-180.5c0,0,40.5-42.5,38.5-107.5C98.4,161.5,83.3,109.7,44.3,93.7z"/>
		</defs>
		<use xlink:href="#SVGID_1_"  style="overflow:visible;fill:#CEB280;"/>
		<clipPath id="SVGID_2_">
			<use xlink:href="#SVGID_1_"  style="overflow:visible;"/>
		</clipPath>
		<path class="st0" d="M142.3,669.7c-1.4-3.3,3.3,24.5,5.5,50.5c1.8,20.8,1.4,40.9-0.5,39.5C147.3,759.7,177.3,753.4,142.3,669.7z"
			/>
		<path class="st1" d="M96.8,161.2c-5.2,121.7-20.4,137.5-35,169C61.8,330.2,131.8,285.2,96.8,161.2z"/>
		<path class="st2" d="M38.8,322.2c0.6,6.6,71.7,412.8,108,425C146.8,747.2,70.8,828.2,38.8,322.2z"/>
		<path class="st2" d="M44.8,93.2c0,0-22,10-29,44c-7.6,36.8-8.1,78.5,0,127c7,42,18,51,23,58c0,0,7,55,13,91c12.5,75.1,17,89,17,89
			s-116-208-88-308S50.8,62.2,44.8,93.2z"/>
		<use xlink:href="#SVGID_1_"  style="overflow:visible;fill:none;stroke:#704F46;stroke-miterlimit:10;"/>
	</g>
</g>
<g id="Capa_8">
	<g id="Sartén">
		<g>
			<defs>
				<path id="SVGID_3_" d="M498.8,488.2c0,0-32.8,16-57-35c-27.5-57.9-26.7-286.1,64-341c5.4-3.3,27.7-9,60-9c9,0,58,83,38,210
					C591.2,393.4,552.8,476.2,498.8,488.2z"/>
			</defs>
			<use xlink:href="#SVGID_3_"  style="overflow:visible;fill:#C6CACC;"/>
			<clipPath id="SVGID_4_">
				<use xlink:href="#SVGID_3_"  style="overflow:visible;"/>
			</clipPath>
			<path class="st3" d="M505.8,112.2c0,0.2,59-36,52,164c2,41-47.2,234.3-119.9,187.7C435.3,471.4,320.6,258.3,505.8,112.2z"/>
			<path class="st4" d="M406.8,222.2c-0.2-9.2,2,124,69,144c0,0,48,9,65-3C538.8,386.2,419.1,674.1,406.8,222.2z"/>
			<use xlink:href="#SVGID_3_"  style="overflow:visible;fill:none;stroke:#232628;stroke-miterlimit:10;"/>
		</g>
		<path class="st5" d="M501.8,480.2c1-1,2.7,39.7-6,88c-8.2,45.6-11.1,65.6-9,53l19,4c0,0,8-58,10-94s2-57,2-61c0,0,19-14,6-21
			c-3-3-15.7,17.4-39,29C476.8,482.2,495.8,491.2,501.8,480.2z"/>
		<path class="st6" d="M498.8,484.2c0,0,4-25,19-1c2.6,4.2-0.3,11.6-2,50c-1,23-5.7,121.9-8,138c-1.3,8-11,86-38,77
			c-13-7-9.8-65.4-5-84c2.6-9.9,15-61,33-129C503.6,513.5,498.3,494.1,498.8,484.2z"/>
	</g>
</g>
<g id="Capa_6" class="st7">
	<g id="Sartén_1_" class="st8">
		<g>
			<defs>
				<path id="SVGID_5_" d="M418.8,493.1c0,0-25.9,25.6-65.2-14.9c-44.6-46.1-116.8-262.5-48.5-343.5c4.1-4.8,23.4-17.4,54-27.7
					c8.5-2.9,81.5,60.1,103.2,186.8C475.9,373.8,466.1,464.5,418.8,493.1z"/>
			</defs>
			<use xlink:href="#SVGID_5_"  style="overflow:visible;fill:#C6CACC;"/>
			<clipPath id="SVGID_6_">
				<use xlink:href="#SVGID_5_"  style="overflow:visible;"/>
			</clipPath>
			<path class="st9" d="M305,134.6c0.1,0.2,44.4-53,101.8,138.7c15,38.2,30.3,237.1-53.5,216.2C353.2,497.5,176.3,332.3,305,134.6z"
				/>
			<path class="st10" d="M246.5,270.5c-3.2-8.7,41.6,116.8,111.5,114.3c0,0,48.4-6.8,60.6-23.6C424,383.7,402.7,694.8,246.5,270.5z"
				/>
			<use xlink:href="#SVGID_5_"  style="overflow:visible;fill:none;stroke:#232628;stroke-miterlimit:10;"/>
		</g>
		<path class="st5" d="M419,484.6c0.6-1.3,15.3,36.8,22.5,85.3c6.8,45.9,10.5,65.7,8.4,53.1l19.3-2.3c0,0-11-57.5-20.6-92.3
			c-9.6-34.7-16.4-54.6-17.6-58.4c0,0,13.5-19.3-1-21.8c-3.8-1.9-9.4,21.5-27.7,40C396,494.5,416.9,496.9,419,484.6z"/>
		<path class="st6" d="M417.5,489.3c0,0-4.2-25,17.7-7c3.8,3.1,3.4,11.1,14.1,48c6.4,22.1,33.6,117.3,36.6,133.3
			c1.3,8,17.1,85-11.4,85.1c-14.6-2.5-30.2-58.8-31.6-78c-0.7-10.2-5.3-62.6-10-132.8C431.4,515.6,420.2,498.9,417.5,489.3z"/>
	</g>
</g>
<g id="Capa_5" class="st7">
	<g id="Cucharon_2_" class="st8">
		<defs>
			<path id="SVGID_7_" d="M305.2,118c0,0-41.7-30.4-93.9,93c-33.2,78.4-21.9,96.3-20.9,110.1l-53.6,196.6c0,0-56.3,200.9-43.6,226.1
				c2.3,4.5,24.2,9.7,29.5,1.2c10.1-16.2,13.5-65.8,13.5-65.8L168,515.3c0,0,39.7-154.1,48.1-177.6c0,0,55.1-20.2,82.1-79.3
				C323.7,202.8,333.1,149.6,305.2,118z"/>
		</defs>
		<use xlink:href="#SVGID_7_"  style="overflow:visible;fill:#CEB280;"/>
		<clipPath id="SVGID_8_">
			<use xlink:href="#SVGID_7_"  style="overflow:visible;"/>
		</clipPath>
		<path class="st11" d="M137.9,677.8c0.2-3.6-7.9,23.4-17.4,47.7c-7.6,19.5-16.9,37.3-17.9,35.2
			C102.6,760.7,132.2,768.4,137.9,677.8z"/>
		<path class="st12" d="M322.4,201.8c-58.5,106.8-79.2,114.2-106.2,136C216.1,337.8,298.8,328.5,322.4,201.8z"/>
		<path class="st13" d="M199,320.4c-2.4,6.2-118.6,401.8-91.4,428.9C107.7,749.3,3.6,788.3,199,320.4z"/>
		<path class="st13" d="M305.8,117.8c0,0-24.2-0.8-45.5,26.6c-23.1,29.6-42,66.8-56.2,113.9c-12.3,40.8-6.4,53.7-5.1,62.2
			c0,0-18.1,52.4-28.6,87.3c-22,72.9-24.2,87.3-24.2,87.3S134.3,257.2,203.7,180S325,92.6,305.8,117.8z"/>
		<use xlink:href="#SVGID_7_"  style="overflow:visible;fill:none;stroke:#704F46;stroke-miterlimit:10;"/>
	</g>
</g>
<g id="Capa_4" class="st7">
	<polygon class="st14" points="165.2,193.3 74.9,184.1 76.5,209.2 	"/>
	<path class="st14" d="M171.6,175.5c-1.2-2.6-41.7-52.3-41.7-52.3l-16.3,18.6L171.6,175.5z"/>
	<path class="st14" d="M304.3,74.7c0-2-20-67-20-67l27-7L304.3,74.7z"/>
	<path class="st14" d="M337.3,70.7c1-2,3-40,3-40l23,4L337.3,70.7z"/>
	<polygon class="st14" points="465.3,161.7 515.3,114.7 520.3,134.7 	"/>
	<path class="st14" d="M474.3,179.7c3-1,30-3,30-3l-6,15L474.3,179.7z"/>
</g>
</svg>
